<?xml version="1.0" encoding="UTF-8"?>
<!DOCTYPE svg PUBLIC "-//W3C//DTD SVG 1.1//EN" "http://www.w3.org/Graphics/SVG/1.1/DTD/svg11.dtd">
<svg xmlns="http://www.w3.org/2000/svg" version="1.1" width="512px" height="512px" style="shape-rendering:geometricPrecision; text-rendering:geometricPrecision; image-rendering:optimizeQuality; fill-rule:evenodd; clip-rule:evenodd" xmlns:xlink="http://www.w3.org/1999/xlink">
<g><path style="opacity:0.918" fill="#000000" d="M 251.5,8.5 C 276.134,9.45929 286.967,22.126 284,46.5C 280.239,57.2617 272.905,64.2617 262,67.5C 261.667,79.5 261.333,91.5 261,103.5C 257.333,107.5 253.667,107.5 250,103.5C 249.667,91.5 249.333,79.5 249,67.5C 228.568,59.6329 221.901,45.2995 229,24.5C 234.19,15.7949 241.69,10.4615 251.5,8.5 Z M 251.5,21.5 C 263.362,20.8659 270.362,26.3659 272.5,38C 271.404,48.2625 265.738,54.0958 255.5,55.5C 241.005,52.1741 236.172,43.5074 241,29.5C 243.855,25.7893 247.355,23.1226 251.5,21.5 Z"/></g>
<g><path style="opacity:0.901" fill="#000000" d="M 102.5,47.5 C 120.414,45.7858 131.748,53.4524 136.5,70.5C 148.171,70.3335 159.838,70.5001 171.5,71C 173.667,71.8333 175.167,73.3333 176,75.5C 176.667,94.8333 176.667,114.167 176,133.5C 173.947,137.292 170.781,138.458 166.5,137C 165.299,136.097 164.465,134.931 164,133.5C 163.5,116.837 163.333,100.17 163.5,83.5C 154.5,83.5 145.5,83.5 136.5,83.5C 134.717,94.1227 128.717,101.289 118.5,105C 98.1793,109.763 85.0126,102.263 79,82.5C 77.3876,64.3696 85.221,52.703 102.5,47.5 Z M 103.5,60.5 C 116.05,59.3807 123.383,65.0474 125.5,77.5C 121.316,92.2595 112.316,96.7595 98.5,91C 91.0168,84.3858 89.5168,76.5524 94,67.5C 96.529,64.1151 99.6956,61.7818 103.5,60.5 Z"/></g>
<g><path style="opacity:0.901" fill="#000000" d="M 397.5,47.5 C 418.205,46.7109 429.872,56.5442 432.5,77C 431.511,91.9862 423.845,101.653 409.5,106C 391.14,108.506 379.474,101.006 374.5,83.5C 365.5,83.5 356.5,83.5 347.5,83.5C 347.667,100.17 347.5,116.837 347,133.5C 344.947,137.292 341.781,138.458 337.5,137C 336.299,136.097 335.465,134.931 335,133.5C 334.333,114.167 334.333,94.8333 335,75.5C 335.833,73.3333 337.333,71.8333 339.5,71C 351.162,70.5001 362.829,70.3335 374.5,70.5C 377.2,57.8003 384.866,50.1336 397.5,47.5 Z M 397.5,60.5 C 416.086,60.2412 422.586,68.9079 417,86.5C 407.667,97.1667 398.333,97.1667 389,86.5C 383.501,75.1737 386.335,66.507 397.5,60.5 Z"/></g>
<g><path style="opacity:0.927" fill="#000000" d="M 48.5,109.5 C 66.0329,108.251 77.3663,115.917 82.5,132.5C 91.5062,132.334 100.506,132.5 109.5,133C 111.002,133.583 112.335,134.416 113.5,135.5C 114.483,150.118 114.817,164.785 114.5,179.5C 128.837,179.333 143.171,179.5 157.5,180C 162.258,183.209 162.591,186.875 158.5,191C 143.837,191.5 129.17,191.667 114.5,191.5C 114.5,202.833 114.5,214.167 114.5,225.5C 117.85,225.335 121.183,225.502 124.5,226C 129.218,227.449 130.718,230.615 129,235.5C 128.167,236.333 127.333,237.167 126.5,238C 119.5,238.667 112.5,238.667 105.5,238C 103.667,237.5 102.5,236.333 102,234.5C 101.5,220.171 101.333,205.837 101.5,191.5C 88.7167,189.981 78.55,194.315 71,204.5C 69.4219,207.657 68.4219,210.991 68,214.5C 67.5,275.166 67.3333,335.832 67.5,396.5C 192.833,396.5 318.167,396.5 443.5,396.5C 443.667,335.832 443.5,275.166 443,214.5C 441.573,203.74 435.74,196.574 425.5,193C 420.207,192.023 414.874,191.523 409.5,191.5C 409.667,205.837 409.5,220.171 409,234.5C 408.5,236.333 407.333,237.5 405.5,238C 398.5,238.667 391.5,238.667 384.5,238C 381.651,235.441 380.817,232.274 382,228.5C 383.171,227.107 384.671,226.273 386.5,226C 389.817,225.502 393.15,225.335 396.5,225.5C 396.5,214.167 396.5,202.833 396.5,191.5C 381.83,191.667 367.163,191.5 352.5,191C 348.409,186.875 348.742,183.209 353.5,180C 367.829,179.5 382.163,179.333 396.5,179.5C 396.033,164.403 396.533,149.403 398,134.5C 399.067,133.809 400.234,133.309 401.5,133C 410.494,132.5 419.494,132.334 428.5,132.5C 433.615,115.766 444.949,108.266 462.5,110C 482.256,115.997 489.756,129.164 485,149.5C 478.17,164.167 466.67,170.334 450.5,168C 438.918,164.585 431.584,157.085 428.5,145.5C 422.167,145.5 415.833,145.5 409.5,145.5C 409.5,156.833 409.5,168.167 409.5,179.5C 432.619,176.963 447.785,186.63 455,208.5C 455.988,282.544 455.654,356.544 454,430.5C 448.911,443.256 439.745,451.423 426.5,455C 394.835,455.5 363.168,455.667 331.5,455.5C 331.5,466.833 331.5,478.167 331.5,489.5C 340.506,489.334 349.506,489.5 358.5,490C 362.292,492.053 363.458,495.219 362,499.5C 361.097,500.701 359.931,501.535 358.5,502C 289.833,502.667 221.167,502.667 152.5,502C 148.708,499.947 147.542,496.781 149,492.5C 149.903,491.299 151.069,490.465 152.5,490C 161.494,489.5 170.494,489.334 179.5,489.5C 179.5,478.167 179.5,466.833 179.5,455.5C 147.832,455.667 116.165,455.5 84.5,455C 71.2554,451.423 62.0887,443.256 57,430.5C 55.3458,356.544 55.0124,282.544 56,208.5C 63.2147,186.63 78.3813,176.963 101.5,179.5C 101.5,168.167 101.5,156.833 101.5,145.5C 95.1667,145.5 88.8333,145.5 82.5,145.5C 76.2694,164.62 63.2694,171.787 43.5,167C 27.2615,159.016 21.4282,146.183 26,128.5C 30.5002,118.515 38.0002,112.182 48.5,109.5 Z M 48.5,122.5 C 66.9087,122.333 73.4087,131 68,148.5C 57.9622,159.156 48.2956,158.822 39,147.5C 34.8739,136.416 38.0405,128.083 48.5,122.5 Z M 452.5,122.5 C 464.814,121.309 472.147,126.809 474.5,139C 471.001,154.49 462.001,159.157 447.5,153C 438.605,144.289 438.271,135.289 446.5,126C 448.432,124.541 450.432,123.375 452.5,122.5 Z M 246.5,129.5 C 252.5,129.5 258.5,129.5 264.5,129.5C 265.414,135.809 266.247,142.142 267,148.5C 267.45,150.519 268.283,152.352 269.5,154C 275.285,155.262 280.952,156.928 286.5,159C 291.649,161.659 296.816,164.159 302,166.5C 304.819,166.007 307.319,164.84 309.5,163C 313.333,159.833 317.167,156.667 321,153.5C 325.349,157.682 329.515,162.015 333.5,166.5C 330.243,171.346 326.743,176.012 323,180.5C 322.5,182 322,183.5 321.5,185C 328.255,195.347 333.255,206.514 336.5,218.5C 337.912,219.806 339.579,220.64 341.5,221C 346.808,221.83 352.141,222.33 357.5,222.5C 357.5,228.833 357.5,235.167 357.5,241.5C 351.805,242.087 346.139,242.92 340.5,244C 338.667,244.5 337.5,245.667 337,247.5C 335.98,252.913 334.647,258.246 333,263.5C 329.995,270.002 327.162,276.502 324.5,283C 326.55,288.742 329.884,293.742 334.5,298C 330.318,302.349 325.985,306.515 321.5,310.5C 317.988,308.243 314.654,305.743 311.5,303C 310.127,302.125 308.627,301.625 307,301.5C 300.658,304.255 294.491,307.421 288.5,311C 282.361,313.602 276.028,315.602 269.5,317C 268.667,317.833 267.833,318.667 267,319.5C 265.921,324.468 265.088,329.468 264.5,334.5C 258.463,334.829 252.463,334.496 246.5,333.5C 245.668,328.85 244.835,324.183 244,319.5C 243.167,318.667 242.333,317.833 241.5,317C 228.748,314.455 217.081,309.455 206.5,302C 200.801,301.981 196.134,304.314 192.5,309C 191.241,309.982 189.908,310.315 188.5,310C 184.5,306 180.5,302 176.5,298C 181.296,293.718 184.629,288.552 186.5,282.5C 180.136,270.913 175.636,258.58 173,245.5C 171.055,244.137 168.888,243.303 166.5,243C 162.152,242.535 157.819,242.035 153.5,241.5C 153.5,235.167 153.5,228.833 153.5,222.5C 159.938,222.404 166.271,221.57 172.5,220C 173.333,219.167 174.167,218.333 175,217.5C 178.363,205.616 183.196,194.449 189.5,184C 186.803,178.629 183.303,173.796 179,169.5C 178.018,168.241 177.685,166.908 178,165.5C 182,161.5 186,157.5 190,153.5C 195.704,158.844 202.037,163.178 209,166.5C 219.359,161.1 230.192,156.767 241.5,153.5C 242.806,152.088 243.64,150.421 244,148.5C 244.753,142.142 245.586,135.809 246.5,129.5 Z M 251.5,195.5 C 268.849,195.354 282.016,202.688 291,217.5C 300.001,242.667 292.501,261.167 268.5,273C 245.113,278.39 228.28,270.223 218,248.5C 212.48,220.195 223.647,202.528 251.5,195.5 Z M 67.5,409.5 C 192.833,409.5 318.167,409.5 443.5,409.5C 445.26,422.417 440.927,432.584 430.5,440C 427.352,441.605 424.019,442.605 420.5,443C 310.5,443.667 200.5,443.667 90.5,443C 79.7403,441.573 72.5736,435.74 69,425.5C 67.809,420.233 67.309,414.899 67.5,409.5 Z M 191.5,455.5 C 234.167,455.5 276.833,455.5 319.5,455.5C 319.5,466.833 319.5,478.167 319.5,489.5C 276.833,489.5 234.167,489.5 191.5,489.5C 191.5,478.167 191.5,466.833 191.5,455.5 Z"/></g>
<g><path style="opacity:0.907" fill="#000000" d="M 237.5,117.5 C 249.505,117.333 261.505,117.5 273.5,118C 274.667,118.5 275.5,119.333 276,120.5C 277.096,128.296 278.596,135.963 280.5,143.5C 288.038,145.623 295.205,148.623 302,152.5C 307.258,148.453 312.425,144.287 317.5,140C 319.695,138.627 322.029,138.294 324.5,139C 332.636,146.135 340.47,153.635 348,161.5C 349.301,163.365 349.635,165.365 349,167.5C 345.028,173.638 340.862,179.638 336.5,185.5C 340.973,192.78 344.64,200.447 347.5,208.5C 353.112,209.577 358.779,210.41 364.5,211C 366.421,211.36 368.088,212.194 369.5,213.5C 370.147,219.619 370.48,225.786 370.5,232C 370.628,238.603 370.128,245.103 369,251.5C 362.369,253.603 355.536,254.937 348.5,255.5C 346.712,264.911 343.378,273.745 338.5,282C 342,286.833 345.5,291.667 349,296.5C 349.635,298.635 349.301,300.635 348,302.5C 340.5,310 333,317.5 325.5,325C 323.167,325.667 320.833,325.667 318.5,325C 314.892,321.549 310.892,318.716 306.5,316.5C 297.803,321.733 288.47,325.4 278.5,327.5C 278.134,333.919 276.8,340.086 274.5,346C 262.905,347.602 251.238,347.935 239.5,347C 237.508,346.426 236.008,345.259 235,343.5C 234.247,338.469 233.413,333.469 232.5,328.5C 223.459,325.479 214.792,321.645 206.5,317C 205.167,316.333 203.833,316.333 202.5,317C 199.167,319.667 195.833,322.333 192.5,325C 189.697,325.755 187.03,325.422 184.5,324C 177.333,316.833 170.167,309.667 163,302.5C 162.333,299.833 162.333,297.167 163,294.5C 166.357,290.644 169.524,286.644 172.5,282.5C 168.182,274.214 164.849,265.547 162.5,256.5C 156.678,254.685 150.678,253.519 144.5,253C 142.667,252.5 141.5,251.333 141,249.5C 140.333,237.833 140.333,226.167 141,214.5C 142.558,212.232 144.724,211.066 147.5,211C 152.833,210.333 158.167,209.667 163.5,209C 166.59,200.729 170.256,192.729 174.5,185C 169.672,179.014 165.339,172.68 161.5,166C 169.117,156.048 177.784,147.048 187.5,139C 189.635,138.365 191.635,138.699 193.5,140C 199,144.167 204.5,148.333 210,152.5C 216.887,148.036 224.387,145.036 232.5,143.5C 233.004,136.136 233.837,128.803 235,121.5C 235.662,120.016 236.496,118.683 237.5,117.5 Z M 246.5,129.5 C 245.586,135.809 244.753,142.142 244,148.5C 243.64,150.421 242.806,152.088 241.5,153.5C 230.192,156.767 219.359,161.1 209,166.5C 202.037,163.178 195.704,158.844 190,153.5C 186,157.5 182,161.5 178,165.5C 177.685,166.908 178.018,168.241 179,169.5C 183.303,173.796 186.803,178.629 189.5,184C 183.196,194.449 178.363,205.616 175,217.5C 174.167,218.333 173.333,219.167 172.5,220C 166.271,221.57 159.938,222.404 153.5,222.5C 153.5,228.833 153.5,235.167 153.5,241.5C 157.819,242.035 162.152,242.535 166.5,243C 168.888,243.303 171.055,244.137 173,245.5C 175.636,258.58 180.136,270.913 186.5,282.5C 184.629,288.552 181.296,293.718 176.5,298C 180.5,302 184.5,306 188.5,310C 189.908,310.315 191.241,309.982 192.5,309C 196.134,304.314 200.801,301.981 206.5,302C 217.081,309.455 228.748,314.455 241.5,317C 242.333,317.833 243.167,318.667 244,319.5C 244.835,324.183 245.668,328.85 246.5,333.5C 252.463,334.496 258.463,334.829 264.5,334.5C 265.088,329.468 265.921,324.468 267,319.5C 267.833,318.667 268.667,317.833 269.5,317C 276.028,315.602 282.361,313.602 288.5,311C 294.491,307.421 300.658,304.255 307,301.5C 308.627,301.625 310.127,302.125 311.5,303C 314.654,305.743 317.988,308.243 321.5,310.5C 325.985,306.515 330.318,302.349 334.5,298C 329.884,293.742 326.55,288.742 324.5,283C 327.162,276.502 329.995,270.002 333,263.5C 334.647,258.246 335.98,252.913 337,247.5C 337.5,245.667 338.667,244.5 340.5,244C 346.139,242.92 351.805,242.087 357.5,241.5C 357.5,235.167 357.5,228.833 357.5,222.5C 352.141,222.33 346.808,221.83 341.5,221C 339.579,220.64 337.912,219.806 336.5,218.5C 333.255,206.514 328.255,195.347 321.5,185C 322,183.5 322.5,182 323,180.5C 326.743,176.012 330.243,171.346 333.5,166.5C 329.515,162.015 325.349,157.682 321,153.5C 317.167,156.667 313.333,159.833 309.5,163C 307.319,164.84 304.819,166.007 302,166.5C 296.816,164.159 291.649,161.659 286.5,159C 280.952,156.928 275.285,155.262 269.5,154C 268.283,152.352 267.45,150.519 267,148.5C 266.247,142.142 265.414,135.809 264.5,129.5C 258.5,129.5 252.5,129.5 246.5,129.5 Z M 251.5,195.5 C 223.647,202.528 212.48,220.195 218,248.5C 228.28,270.223 245.113,278.39 268.5,273C 292.501,261.167 300.001,242.667 291,217.5C 282.016,202.688 268.849,195.354 251.5,195.5 Z"/></g>
<g><path style="opacity:0.908" fill="#000000" d="M 245.5,183.5 C 268.563,180.789 286.73,188.789 300,207.5C 312.674,232.31 309.507,254.81 290.5,275C 273.875,288.087 255.542,291.087 235.5,284C 211.281,272.07 200.781,252.57 204,225.5C 209.348,202.986 223.181,188.986 245.5,183.5 Z M 251.5,195.5 C 223.647,202.528 212.48,220.195 218,248.5C 228.28,270.223 245.113,278.39 268.5,273C 292.501,261.167 300.001,242.667 291,217.5C 282.016,202.688 268.849,195.354 251.5,195.5 Z"/></g>
</svg>
