<svg xmlns="http://www.w3.org/2000/svg" viewBox="0 0 64 64" id="color-picker">
  <path fill="#00b76c" d="m23 23.6-9.1-9.1C9 19.4 6 26.2 6 33.7h12.8c0-4 1.6-7.5 4.2-10.1z"></path>
  <path fill="#00a05b" d="M16.2 33.7h2.6c0-3.9 1.6-7.5 4.2-10l-1.2-1.2c-3.4 2.5-5.6 6.6-5.6 11.2z"></path>
  <path fill="#546f7a" d="M18.8 33.7H6c0 7.5 3 14.2 7.9 19.1l9.1-9.1c-2.6-2.6-4.2-6.1-4.2-10z"></path>
  <path fill="#475d63" d="M16.2 33.7c0 4.6 2.2 8.6 5.6 11.2l1.2-1.2c-2.6-2.6-4.2-6.1-4.2-10h-2.6z"></path>
  <path fill="#3d4ff9" d="m23 43.7-9.1 9.1c4.9 4.9 11.6 7.9 19.1 7.9V47.8c-3.9 0-7.5-1.6-10-4.1z"></path>
  <path fill="#3046c1" d="M30.3 47.7h.7c-3.1-.4-5.9-1.9-8-4l-1.2 1.2c2.4 1.7 5.3 2.8 8.5 2.8z"></path>
  <path fill="#39a4fa" d="M33 47.8v12.8c7.5 0 14.2-3 19.1-7.9l-9.1-9c-2.5 2.5-6.1 4.1-10 4.1z"></path>
  <path fill="#0091e2" d="M33 60.5v.1c7.5 0 14.2-3 19.1-7.9l-1.4-1.4C46.3 56.4 40 59.8 33 60.5z"></path>
  <path fill="#8b41f7" d="M47.2 33.7c0 3.9-1.6 7.5-4.2 10l9.1 9.1C57 47.9 60 41.1 60 33.7H47.2z"></path>
  <path fill="#7539d3" d="M57.3 33.7c0 6.8-2.5 12.9-6.6 17.7l1.4 1.4C57 47.9 60 41.1 60 33.7h-2.7z"></path>
  <path fill="#ff434d" d="M47.2 33.7H60c0-7.5-3-14.2-7.9-19.1l-9.1 9c2.6 2.6 4.2 6.1 4.2 10.1z"></path>
  <path fill="#dd3646" d="M57.3 33.7H60c0-7.5-3-14.2-7.9-19.1L50.7 16c4.1 4.7 6.6 10.9 6.6 17.7z"></path>
  <path fill="#ff6137" d="m43 23.6 9.1-9.1C47.2 9.7 40.5 6.7 33 6.7v12.8c3.9 0 7.5 1.6 10 4.1z"></path>
  <path fill="#e04f32" d="m50.7 16 1.4-1.4C47.2 9.7 40.5 6.7 33 6.7v.1c7 .7 13.3 4.1 17.7 9.2z"></path>
  <path fill="#ffd039" d="M33 19.5V6.7c-7.5 0-14.2 3-19.1 7.9l9.1 9.1c2.5-2.6 6.1-4.2 10-4.2z"></path>
  <path fill="#ffae47" d="M30.3 19.6c-3.2 0-6.1 1.1-8.5 2.8l1.2 1.2c2.1-2.1 4.9-3.6 8-4h-.7z"></path>
</svg>
